<svg width="447" height="400" viewBox="0 0 447 400" fill="none" xmlns="http://www.w3.org/2000/svg">
<path fill-rule="evenodd" clip-rule="evenodd" d="M248.144 100.019H149.396V0.413882C149.396 0.413882 208.94 0 242.451 0C355.377 0 446.918 88.5774 446.918 199.405C446.918 308.363 358.436 397.04 248.144 400V296.118C249.82 296.212 251.509 296.259 253.208 296.259C304.95 296.259 346.896 252.329 346.896 198.139C346.896 143.949 304.95 100.019 253.208 100.019C251.509 100.019 249.82 100.066 248.144 100.16V100.019ZM68.3675 49.3765H17.7249V100.019H68.3675V181.047H149.396V100.019L68.3675 100.019V49.3765ZM149.396 200.038H200.038V250.681H149.396V200.038ZM170.919 301.323H94.9549V377.287H170.919V301.323ZM0 230.424H58.239V288.663H0V230.424Z" fill="#FEFEFE"/>
</svg>
